<?xml version="1.0" standalone="no"?>
<!DOCTYPE svg PUBLIC "-//W3C//DTD SVG 20010904//EN"
 "http://www.w3.org/TR/2001/REC-SVG-20010904/DTD/svg10.dtd">
<svg version="1.0" xmlns="http://www.w3.org/2000/svg"
 width="106.000000pt" height="106.000000pt" viewBox="0 0 106.000000 106.000000"
 preserveAspectRatio="xMidYMid meet">
<metadata>
Created by potrace 1.14, written by Peter Selinger 2001-2017
</metadata>
<g transform="translate(0.000000,106.000000) scale(0.100000,-0.100000)"
fill="#000000" stroke="none">
<path d="M385 988 c-112 -39 -202 -112 -260 -212 -28 -48 -27 -70 3 -48 46 33
62 36 96 19 26 -12 41 -31 64 -79 17 -35 33 -71 36 -80 11 -35 34 -17 64 47
57 121 177 220 306 251 106 27 95 65 -31 104 -87 27 -198 26 -278 -2z"/>
<path d="M724 837 c-12 -14 -19 -38 -20 -65 0 -23 1 -40 4 -37 3 2 13 -7 24
-20 22 -29 56 -32 98 -10 50 26 50 104 1 142 -27 21 -85 16 -107 -10z"/>
<path d="M906 778 c14 -23 9 -63 -11 -85 -28 -30 -81 -42 -150 -32 -33 4 -64
4 -68 0 -4 -5 4 -22 18 -40 15 -17 23 -31 19 -31 -4 0 0 -6 9 -12 22 -17 55
-111 66 -190 8 -58 3 -122 -15 -219 -8 -47 7 -56 51 -29 60 37 130 124 160
197 38 94 45 213 17 300 -25 78 -68 153 -88 153 -9 0 -12 -5 -8 -12z"/>
<path d="M131 684 c-44 -37 -44 -91 1 -129 87 -73 199 45 119 126 -37 37 -79
38 -120 3z"/>
<path d="M50 477 c0 -130 84 -278 205 -359 22 -15 69 -36 105 -48 109 -37 277
-28 175 9 -72 26 -68 98 10 190 32 38 43 57 36 64 -7 7 -49 10 -103 8 -69 -2
-109 3 -154 17 -70 22 -160 78 -203 128 -17 19 -40 34 -51 34 -17 0 -20 -6
-20 -43z"/>
<path d="M556 239 c-33 -39 -33 -69 0 -108 47 -56 137 -36 149 33 8 38 -14 90
-40 100 -41 16 -83 6 -109 -25z"/>
</g>
</svg>
